<?xml version="1.0" standalone="no"?>
<!DOCTYPE svg PUBLIC "-//W3C//DTD SVG 20010904//EN"
 "http://www.w3.org/TR/2001/REC-SVG-20010904/DTD/svg10.dtd">
<svg version="1.0" xmlns="http://www.w3.org/2000/svg"
 width="507.000000pt" height="527.000000pt" viewBox="0 0 507.000000 527.000000"
 preserveAspectRatio="xMidYMid meet">

<g transform="translate(0.000000,527.000000) scale(0.100000,-0.100000)"
fill="#000000" stroke="none">
<path d="M3895 5169 c-170 -38 -672 -151 -1115 -250 -443 -99 -841 -193 -885
-207 l-80 -27 -7 -235 c-4 -129 -11 -556 -16 -948 -6 -392 -12 -716 -15 -719
-4 -3 -48 5 -99 18 -137 34 -295 32 -398 -5 -144 -51 -260 -134 -334 -239 -70
-100 -79 -133 -74 -294 3 -131 5 -141 33 -192 37 -66 141 -164 217 -202 71
-36 155 -49 321 -49 l127 0 83 41 c178 90 276 175 339 295 70 133 70 133 78
964 5 516 11 756 19 781 7 23 21 40 38 48 39 18 286 76 958 226 655 146 914
199 924 189 8 -7 6 -1222 -2 -1230 -3 -3 -39 4 -79 15 -92 26 -320 29 -406 7
-148 -40 -322 -187 -395 -336 -31 -63 -32 -68 -32 -195 0 -127 1 -132 33 -197
64 -130 222 -244 372 -268 155 -24 286 -5 425 64 153 76 256 175 325 314 l30
61 0 1293 c0 1019 -3 1298 -13 1318 -8 15 -22 26 -37 27 -14 1 -164 -30 -335
-68z"/>
<path d="M2415 1821 c-126 -37 -218 -103 -485 -352 -248 -231 -319 -275 -485
-301 -59 -9 -88 -8 -159 5 -113 21 -169 48 -296 144 -58 44 -146 111 -196 149
-96 72 -207 138 -284 168 -92 36 -362 58 -442 36 l-38 -11 7 -797 c3 -438 8
-799 10 -802 8 -9 1569 -17 3311 -19 1575 -1 1663 0 1670 17 10 24 9 1598 -1
1608 -4 5 -63 8 -130 8 -233 -2 -348 -50 -610 -259 -272 -216 -294 -227 -471
-228 -115 -1 -138 2 -186 22 -88 37 -175 101 -335 248 -313 287 -391 340 -542
369 -102 19 -263 17 -338 -5z m336 -252 c45 -11 131 -76 278 -210 246 -225
357 -321 379 -332 21 -10 22 -15 22 -152 0 -106 -4 -146 -14 -161 -14 -18 -35
-19 -753 -22 -725 -3 -979 4 -1007 28 -19 15 -29 103 -19 160 8 44 11 47 131
127 145 96 191 134 377 314 203 196 264 242 348 259 47 10 203 3 258 -11z
m-2285 -189 c32 -16 84 -49 114 -72 221 -170 366 -273 435 -307 101 -49 202
-80 285 -88 49 -5 70 -12 88 -30 22 -22 24 -31 19 -83 -3 -32 -13 -72 -23 -89
l-18 -31 -226 1 c-124 0 -368 4 -544 8 -299 7 -319 8 -333 26 -11 16 -13 76
-11 343 3 372 -2 352 98 352 43 0 71 -7 116 -30z m4344 -329 l0 -349 -72 -7
c-40 -3 -291 -5 -558 -3 l-485 3 -18 38 c-15 31 -17 50 -12 111 l7 73 127 6
c69 4 153 14 185 22 95 26 215 90 324 173 55 42 143 109 194 148 134 102 193
132 266 133 l42 1 0 -349z m-3503 -573 c24 -25 36 -119 23 -181 l-11 -57 -67
1 c-139 1 -241 15 -263 35 -19 17 -21 27 -17 96 7 121 22 129 217 122 69 -2
109 -8 118 -16z m1910 -4 c16 -22 18 -176 3 -205 -10 -18 -23 -19 -183 -19
-221 0 -221 0 -225 100 -4 96 2 115 35 128 45 18 80 21 222 17 116 -2 136 -5
148 -21z m794 16 c34 -6 61 -18 72 -31 32 -39 16 -178 -23 -199 -25 -13 -286
-13 -311 0 -17 9 -19 22 -19 98 0 59 5 94 14 107 22 30 166 44 267 25z m783
-14 c24 -15 26 -22 26 -84 0 -37 -3 -84 -7 -105 l-6 -39 -159 4 c-190 4 -188
2 -188 114 0 56 4 77 20 97 25 31 52 36 187 33 75 -2 108 -7 127 -20z m-4214
4 c22 -14 28 -201 7 -219 -36 -29 -292 -25 -322 6 -11 10 -15 38 -15 100 0
124 -1 123 174 123 78 0 148 -5 156 -10z m1656 -4 c16 -13 19 -27 19 -111 0
-69 -4 -98 -13 -104 -21 -13 -218 -21 -300 -13 -98 10 -107 21 -107 123 0 118
1 119 214 119 129 0 172 -3 187 -14z"/>
</g>
</svg>
